<svg id="Layer_1" data-name="Layer 1" xmlns="http://www.w3.org/2000/svg" viewBox="0 0 300 300"><defs><style>.cls-1{fill:none;stroke:#f3f3f3;stroke-miterlimit:10;}</style></defs><title>paper</title><path class="cls-1" d="M31.83,190.71S54.29,183.07,57,177.24,68.21,122,75.4,113.45s24.48-36.61,32.34-39.08,38.63-12.12,40.87-13.92,6.21,7.19,6.21,7.19,43.69-35.2,49.41-40.92,20.15-14.51,25.57-11.13c3.36,2.1,7.4,5.58,5.91,10.92-.15.54-.4.39,0,0,4.5-4.4,17.74-14.34,26-6.11C271.92,30.63,259,46,259,46s17.7,6.37,9.58,19.61-15.3,23.71-15.3,23.71,17.45-5.36,13.24,13.11-8.12,17-23.92,38.18S213.55,172,206,185.87s-56.91,53.06-70,58.51-36.87,17-43.21,33.42"/><path class="cls-1" d="M154.82,67.64S118,85.53,108.45,97.57l-9.55,12"/><path class="cls-1" d="M235.71,26.51s-38.4,31.2-43.39,36.6-24.5,19.1-24.5,19.1"/><path class="cls-1" d="M259,46s-33.85,32.07-39.25,36.23-24.5,23.25-24.5,23.25"/><path class="cls-1" d="M253.26,89.3s-31.59,24.82-39.66,36.27"/></svg>