<svg id="Layer_1" data-name="Layer 1" xmlns="http://www.w3.org/2000/svg" viewBox="0 0 300 300"><defs><style>.cls-1{fill:none;stroke:#000000;stroke-miterlimit:10;}</style></defs><title>rock</title><path class="cls-1" d="M113,275.56c18.39-19.62,35.78-33.11,43.76-41.38a34.48,34.48,0,0,1,20.69-10.3c30.71-3.71,71.36-43.74,82.28-57.77C269.18,154,256,128.33,256,128.33c1.8-12.49-9-34.64-9-34.64,0-9.3-19.82-23.4-23.64-24.38-3.39-.87,4-14.16-10.28-23.94,0,0-10.87-7-45.44,13.94,0,0-11.89-7.76-28.42,0-5.3,2.49-30.7,23.11-35.38,29.54s0,4.68-2.64,17.85-4.34,30.59-6.58,48.62-62.81,56.87-62.81,56.87"/><path class="cls-1" d="M167.65,59.31s-11.2,5.48-16.75,8.9-11.09,2.55-15.78,8.53"/></svg>