<svg id="Layer_1" data-name="Layer 1" xmlns="http://www.w3.org/2000/svg" viewBox="0 0 300 300"><defs><style>.cls-1{fill:none;stroke:#f3f3f3;stroke-miterlimit:10;}</style></defs><title>scissors</title><path class="cls-1" d="M23.85,212.63s27.52-7.14,33.7-13.76,47.74-64.45,55-69.41,10.19-20.08,19.14-27.57,14.6-30.58,21.9-43.27S189,4.78,195.76,4.94s11.94,2.61,10.94,7.81-12.93,30.91-16.25,39-17.91,44.9-17.91,50.43-.34,12.69,5.3,10.74S208,93.76,217.32,89.21s55.07-30.59,63.36-28.31S293.29,73.26,289,77.49s-43.45,28-48.43,32.86-14.59,13-23.88,16.92-22.4,16.76-21.9,16.27,17.25-.33,21.56,9.11S212,174.77,212,174.77s13.6,15.62,1,27.33-20.24,9.43-22.23,14.64-22.22,24.72-46.77,41S114.48,274,108.51,274s-28.86,15.61-28.86,15.61"/></svg>